<?xml version="1.0" standalone="no"?>
<!DOCTYPE svg PUBLIC "-//W3C//DTD SVG 20010904//EN"
 "http://www.w3.org/TR/2001/REC-SVG-20010904/DTD/svg10.dtd">
<svg version="1.0" xmlns="http://www.w3.org/2000/svg"
 width="1352.000000pt" height="1800.000000pt" viewBox="0 0 1352.000000 1800.000000"
 preserveAspectRatio="xMidYMid meet">

<g transform="translate(0.000000,1800.000000) scale(0.100000,-0.100000)"
fill="#000000" stroke="none">
<path d="M3310 16434 c-417 -107 -721 -635 -839 -1459 -34 -241 -44 -435 -38
-739 7 -320 24 -478 87 -786 57 -283 127 -524 335 -1149 261 -788 333 -1052
384 -1406 24 -163 46 -535 36 -617 -22 -204 -141 -563 -415 -1258 -320 -811
-394 -1002 -480 -1236 -421 -1145 -620 -2000 -620 -2669 0 -281 65 -717 155
-1035 140 -494 353 -871 667 -1182 611 -604 1598 -909 3128 -968 339 -13 2404
-13 2640 0 1256 69 2181 402 2780 1000 408 407 646 908 752 1580 21 133 23
177 23 530 -1 302 -5 417 -18 532 -61 517 -197 1011 -452 1643 -112 278 -189
452 -463 1045 -300 651 -392 873 -466 1128 -57 197 -70 280 -69 442 1 400 80
689 389 1431 261 628 346 881 405 1209 19 106 23 172 27 424 4 325 -4 449 -42
631 -90 422 -321 754 -590 847 -109 37 -294 16 -401 -46 -171 -101 -291 -320
-309 -565 -15 -189 -73 -404 -159 -581 -66 -136 -153 -257 -267 -371 -201
-204 -414 -309 -683 -340 -125 -14 -348 0 -473 30 -243 59 -422 178 -522 347
-72 122 -71 109 -80 874 -8 663 -9 686 -29 731 -11 25 -36 57 -54 70 l-34 24
-705 7 c-388 4 -725 5 -750 2 -77 -10 -101 -38 -191 -218 -94 -190 -151 -266
-247 -329 -98 -66 -202 -98 -334 -105 -123 -6 -178 3 -340 54 -539 170 -848
509 -972 1065 -30 135 -49 270 -76 549 -44 441 -78 576 -178 714 -45 62 -133
119 -214 139 -90 23 -231 28 -298 11z m290 -61 c82 -22 151 -71 199 -143 22
-34 41 -73 41 -86 0 -13 4 -24 8 -24 11 0 38 -88 56 -189 9 -46 30 -213 46
-371 32 -304 56 -470 91 -610 101 -407 313 -701 639 -887 221 -127 489 -213
660 -213 225 0 418 82 538 230 26 32 85 134 132 226 72 143 90 171 118 186 30
15 97 16 745 11 779 -6 751 -4 784 -66 17 -30 18 -85 21 -729 2 -432 7 -698
13 -698 5 0 9 -9 9 -20 0 -33 39 -125 81 -190 111 -172 307 -297 548 -351 47
-10 151 -24 230 -30 375 -30 681 77 943 329 264 255 419 587 463 993 16 157
33 216 86 320 102 196 253 287 460 277 72 -3 97 -9 150 -36 277 -137 475 -493
535 -963 24 -190 15 -705 -15 -866 -57 -312 -152 -596 -380 -1142 -304 -727
-382 -988 -412 -1375 -12 -156 -7 -244 21 -386 61 -302 170 -582 530 -1360
319 -689 565 -1268 578 -1362 2 -21 8 -38 12 -38 8 0 64 -163 119 -345 109
-366 176 -717 201 -1055 15 -208 12 -633 -5 -790 -33 -289 -115 -614 -216
-856 -43 -102 -87 -195 -98 -204 -3 -3 -17 -27 -30 -55 -32 -69 -155 -253
-238 -355 -367 -456 -941 -796 -1658 -985 -309 -81 -609 -131 -1030 -172 -143
-13 -357 -17 -1350 -20 -1195 -5 -1593 2 -1975 32 -1088 87 -1855 319 -2400
728 -108 81 -290 243 -290 259 0 5 -11 19 -26 30 -37 29 -146 167 -219 277
-254 383 -410 868 -490 1531 -69 571 83 1426 440 2479 102 299 273 763 284
771 4 3 10 19 14 35 3 17 111 298 240 625 334 847 421 1086 482 1329 45 181
49 231 36 464 -28 530 -93 809 -416 1773 -211 630 -345 1105 -345 1222 0 22
-4 42 -9 44 -11 4 -48 263 -61 432 -13 165 -13 536 0 691 15 176 50 419 61
423 5 2 9 24 9 48 0 82 76 368 142 534 146 369 345 597 591 676 61 19 86 22
162 18 50 -3 115 -12 145 -21z"/>
</g>
</svg>
